# Blender v3.1.2 OBJ File: ''
# www.blender.org
mtllib pyramid2.mtl
o pyramid
v -1.961070 0.026020 -1.939138
v 1.961071 0.026020 -1.939139
v 1.961071 0.026020 1.983003
v -1.961071 0.026020 1.983003
v 0.000000 2.172251 0.021932
vt 0.500000 0.000000
vt 0.750000 0.250000
vt 0.500000 0.500000
vt 0.250000 0.250000
vt 0.250000 0.500000
vt 0.375000 0.500000
vt 0.500000 1.000000
vt 0.625000 0.500000
vt 0.750000 0.500000
vn -0.0000 -1.0000 -0.0000
vn -0.7382 0.6745 -0.0000
vn 0.0000 0.6745 0.7382
vn 0.7382 0.6745 0.0000
vn -0.0000 0.6745 -0.7382
usemtl initialShadingGroup
s 1
f 1/1/1 2/2/1 3/3/1 4/4/1
f 1/5/2 4/6/2 5/7/2
f 4/6/3 3/3/3 5/7/3
f 3/3/4 2/8/4 5/7/4
f 2/8/5 1/9/5 5/7/5
